<svg id="Capa_1" data-name="Capa 1" xmlns="http://www.w3.org/2000/svg" version="1.1" viewBox="-0.1 47.9 431 193">   <defs>     
  <style>   
    @media (prefers-color-scheme: light) {
      .cls-1 {         
        fill: rgb(58, 60, 67);          
        fill-rule: evenodd;         
        stroke: rgb(12, 14, 18);         
        stroke-miterlimit: 10;       
      }        
    }

    @media (prefers-color-scheme: dark) {
      .cls-1 {         
        fill: #292b32;          
        fill-rule: evenodd;         
        stroke: #444950;         
        stroke-miterlimit: 10;       
      }        
    }        
    
    @media (prefers-color-scheme: light) {
      .cls-2 {         
        fill: none;         
        stroke: #dadde1;         
        stroke-dasharray: 0 0 4 3;       
      }
    }

    @media (prefers-color-scheme: dark) {
      .cls-2 {         
        fill: none;         
        stroke: #444950;         
        stroke-dasharray: 0 0 4 3;       
      }
    }
  </style>   
</defs>   
<rect class="cls-2" x=".9" y="48.9" width="429" height="191"></rect>   <path class="cls-2" d="M24.4,48.4v192"></path>   <path class="cls-2" d="M48.4,48.4v192"></path>   <path class="cls-2" d="M72.4,48.4v192"></path>   <path class="cls-2" d="M96.4,48.4v192"></path>   <path class="cls-2" d="M120.4,48.4v192"></path>   <path class="cls-2" d="M144.4,48.4v192"></path>   <path class="cls-2" d="M168.4,48.4v192"></path>   <path class="cls-2" d="M192.4,48.4v192"></path>   <path class="cls-2" d="M216.4,48.4v192"></path>   <path class="cls-2" d="M240.4,48.4v192"></path>   <path class="cls-2" d="M264.4,48.4v192"></path>   <path class="cls-2" d="M288.4,48.4v192"></path>   <path class="cls-2" d="M312.4,48.4v192"></path>   <path class="cls-2" d="M336.4,48.4v192"></path>   <path class="cls-2" d="M360.4,48.4v192"></path>   <path class="cls-2" d="M384.4,48.4v192"></path>   <path class="cls-2" d="M408.4,48.4v192"></path>   <path class="cls-2" d="M430.4,144.4H.4"></path>   <path class="cls-2" d="M430.4,168.4H.4"></path>   <path class="cls-2" d="M430.4,192.4H.4"></path>   <path class="cls-2" d="M430.4,216.4H.4"></path>   <path class="cls-2" d="M430.4,120.4H.4"></path>   <path class="cls-2" d="M430.4,96.4H.4"></path>   <path class="cls-2" d="M430.4,72.4H.4"></path>   <path class="cls-1" d="M215.5,72.9c-39.2,0-71,31.8-71,71s31.8,71,71,71,71-31.8,71-71-31.8-71-71-71h0ZM215.5,197.1c-4.9,0-8.9-4-8.9-8.9s4-8.9,8.9-8.9,8.9,4,8.9,8.9-4,8.9-8.9,8.9h0ZM230.1,146.1c-4.2,3.2-6.5,5-6.5,10.2v7.2c0,4.1-3.6,7.4-8,7.4s-8.1-3.3-8.1-7.4v-7.2c0-12,7.4-17.7,12.2-21.5,4.2-3.2,6.5-5,6.5-10.2s-4.8-10.5-10.7-10.5-10.7,4.7-10.7,10.5-3.6,7.4-8.1,7.4-8.1-3.3-8.1-7.4c0-14,12-25.3,26.8-25.3s26.8,11.3,26.8,25.3-7.4,17.7-12.2,21.5h0Z"></path> </svg>