<svg id="Capa_1" data-name="Capa 1" xmlns="http://www.w3.org/2000/svg" version="1.1" viewBox="-0.1 47.9 431 193">   <defs>     <style>    @media (prefers-color-scheme: light) {
      .cls-1 {         
        fill: rgb(58, 60, 67);          
        fill-rule: evenodd;         
        stroke: rgb(12, 14, 18);         
        stroke-miterlimit: 10;       
      }        
    }

    @media (prefers-color-scheme: dark) {
      .cls-1 {         
        fill: #292b32;          
        fill-rule: evenodd;         
        stroke: #444950;         
        stroke-miterlimit: 10;       
      }        
    }        
    
    @media (prefers-color-scheme: light) {
      .cls-2 {         
        fill: none;         
        stroke: #dadde1;         
        stroke-dasharray: 0 0 4 3;       
      }
    }

    @media (prefers-color-scheme: dark) {
      .cls-2 {         
        fill: none;         
        stroke: #444950;         
        stroke-dasharray: 0 0 4 3;       
      }
    }  </style>   </defs>   <rect class="cls-2" x=".9" y="48.9" width="429" height="191"></rect>   <path class="cls-2" d="M24.4,48.4v192"></path>   <path class="cls-2" d="M48.4,48.4v192"></path>   <path class="cls-2" d="M72.4,48.4v192"></path>   <path class="cls-2" d="M96.4,48.4v192"></path>   <path class="cls-2" d="M120.4,48.4v192"></path>   <path class="cls-2" d="M144.4,48.4v192"></path>   <path class="cls-2" d="M168.4,48.4v192"></path>   <path class="cls-2" d="M192.4,48.4v192"></path>   <path class="cls-2" d="M216.4,48.4v192"></path>   <path class="cls-2" d="M240.4,48.4v192"></path>   <path class="cls-2" d="M264.4,48.4v192"></path>   <path class="cls-2" d="M288.4,48.4v192"></path>   <path class="cls-2" d="M312.4,48.4v192"></path>   <path class="cls-2" d="M336.4,48.4v192"></path>   <path class="cls-2" d="M360.4,48.4v192"></path>   <path class="cls-2" d="M384.4,48.4v192"></path>   <path class="cls-2" d="M408.4,48.4v192"></path>   <path class="cls-2" d="M430.4,144.4H.4"></path>   <path class="cls-2" d="M430.4,168.4H.4"></path>   <path class="cls-2" d="M430.4,192.4H.4"></path>   <path class="cls-2" d="M430.4,216.4H.4"></path>   <path class="cls-2" d="M430.4,120.4H.4"></path>   <path class="cls-2" d="M430.4,96.4H.4"></path>   <path class="cls-2" d="M430.4,72.4H.4"></path>   <g>     <path class="cls-1" d="M223.7,165.5c-.9-5.9-3.3-11.3-6.8-15.9l7.9-7.9-7.1-7.1-7.9,7.9c-4.5-3.4-10-5.6-15.8-6.5v-11.2h-10v11.2c-5.9.8-11.4,3-16,6.4l-7.7-7.7-7.1,7.1,7.6,7.6c-3.6,4.6-6,10.1-6.9,16.1h-10.5v10h10.5c.8,6.1,3.2,11.6,6.8,16.3l-7.4,7.4,7.1,7.1,7.5-7.5c4.7,3.4,10.2,5.8,16.3,6.6v10.8h10v-10.8c6-.9,11.5-3.2,16.1-6.7l7.7,7.7,7.1-7.1-7.7-7.7c3.5-4.6,5.8-10.1,6.6-16.1h10.9v-10h-10.9ZM188.9,188.8c-10.1,0-18.3-8.2-18.3-18.3s8.2-18.3,18.3-18.3,18.3,8.2,18.3,18.3-8.2,18.3-18.3,18.3h0Z"></path>     <path class="cls-1" d="M276.5,107.5l11.2-2.9-2.6-10.1-11.2,2.9c-1.2-2.5-2.7-4.8-4.7-6.9-2-2-4.3-3.5-6.6-4.8l3.1-11.1-10-2.8-3.1,11c-5.6-.4-11.2.8-16.1,3.9l-7.8-8-7.4,7.3,7.8,7.9c-3.3,4.8-4.8,10.5-4.5,16.2l-10.7,2.8,2.6,10,10.7-2.8c1.2,2.5,2.7,4.9,4.8,7,2.1,2.1,4.5,3.7,7,5l-3,10.7,10,2.8,3-10.8c5.6.3,11.2-1,16-4.3l7.9,8.1,7.4-7.3-8-8.1c3.2-4.8,4.5-10.3,4.2-15.8h0ZM250.6,124.1c-8.4,0-15.3-6.9-15.3-15.3s6.9-15.3,15.3-15.3,15.3,6.8,15.3,15.3-6.9,15.3-15.3,15.3h0Z"></path>   </g> </svg>