<svg xmlns="http://www.w3.org/2000/svg" fill="none" viewBox="0 0 431 289" height="289" width="431">
<rect stroke-dasharray="4 3" stroke="#232326" height="191" width="429" y="48.9324" x="0.944824"/>
<path stroke-dasharray="4 3" stroke="#232326" d="M24.4448 48.4324L24.4448 240.432"/>
<path stroke-dasharray="4 3" stroke="#232326" d="M48.4448 48.4324L48.4448 240.432"/>
<path stroke-dasharray="4 3" stroke="#232326" d="M72.4448 48.4324L72.4448 240.432"/>
<path stroke-dasharray="4 3" stroke="#232326" d="M96.4448 48.4324L96.4448 240.432"/>
<path stroke-dasharray="4 3" stroke="#232326" d="M120.445 48.4324L120.445 240.432"/>
<path stroke-dasharray="4 3" stroke="#232326" d="M144.445 48.4324L144.445 240.432"/>
<path stroke-dasharray="4 3" stroke="#232326" d="M168.445 48.4324L168.445 240.432"/>
<path stroke-dasharray="4 3" stroke="#232326" d="M192.445 48.4324L192.445 240.432"/>
<path stroke-dasharray="4 3" stroke="#232326" d="M216.445 48.4324L216.445 240.432"/>
<path stroke-dasharray="4 3" stroke="#232326" d="M240.445 48.4324L240.445 240.432"/>
<path stroke-dasharray="4 3" stroke="#232326" d="M264.445 48.4324L264.445 240.432"/>
<path stroke-dasharray="4 3" stroke="#232326" d="M288.445 48.4324L288.445 240.432"/>
<path stroke-dasharray="4 3" stroke="#232326" d="M312.445 48.4324L312.445 240.432"/>
<path stroke-dasharray="4 3" stroke="#232326" d="M336.445 48.4324L336.445 240.432"/>
<path stroke-dasharray="4 3" stroke="#232326" d="M360.445 48.4324L360.445 240.432"/>
<path stroke-dasharray="4 3" stroke="#232326" d="M384.445 48.4324L384.445 240.432"/>
<path stroke-dasharray="4 3" stroke="#232326" d="M408.445 48.4324L408.445 240.432"/>
<path stroke-dasharray="4 3" stroke="#232326" d="M430.445 144.432L0.444819 144.432"/>
<path stroke-dasharray="4 3" stroke="#232326" d="M430.445 168.432L0.444819 168.432"/>
<path stroke-dasharray="4 3" stroke="#232326" d="M430.445 192.432L0.444819 192.432"/>
<path stroke-dasharray="4 3" stroke="#232326" d="M430.445 216.432L0.444819 216.432"/>
<path stroke-dasharray="4 3" stroke="#232326" d="M430.445 120.432L0.444819 120.432"/>
<path stroke-dasharray="4 3" stroke="#232326" d="M430.445 96.4324L0.444819 96.4324"/>
<path stroke-dasharray="4 3" stroke="#232326" d="M430.445 72.4324L0.444819 72.4324"/>
</svg>