<?xml version="1.0" encoding="utf-8"?>
<!-- Generator: Adobe Illustrator 23.0.0, SVG Export Plug-In . SVG Version: 6.00 Build 0)  -->
<svg version="1.1" id="Layer_1" xmlns="http://www.w3.org/2000/svg" xmlns:xlink="http://www.w3.org/1999/xlink" x="0px" y="0px"
	 viewBox="0 0 5386.1 1256.3" style="enable-background:new 0 0 5386.1 1256.3;" xml:space="preserve">
<style type="text/css">
	.st0{clip-path:url(#SVGID_21_);}
	.st1{clip-path:url(#SVGID_22_);}
	.st2{clip-path:url(#SVGID_23_);}
	.st3{clip-path:url(#SVGID_24_);}
	.st4{clip-path:url(#SVGID_25_);}
	.st5{clip-path:url(#SVGID_26_);}
	.st6{clip-path:url(#SVGID_27_);}
	.st7{clip-path:url(#SVGID_28_);}
	.st8{clip-path:url(#SVGID_29_);}
	.st9{clip-path:url(#SVGID_30_);}
	.st10{clip-path:url(#SVGID_31_);}
	.st11{clip-path:url(#SVGID_32_);}
	.st12{clip-path:url(#SVGID_33_);}
	.st13{clip-path:url(#SVGID_34_);}
	.st14{clip-path:url(#SVGID_35_);}
	.st15{clip-path:url(#SVGID_36_);}
	.st16{clip-path:url(#SVGID_37_);}
	.st17{clip-path:url(#SVGID_38_);}
	.st18{clip-path:url(#SVGID_39_);}
</style>
<g>
	<defs>
		<polygon id="SVGID_1_" points="1271,407.6 1270.9,407.6 1067.3,203.8 1270.9,0 1271,0 1271,407.6 		"/>
	</defs>
	<defs>
		<polygon id="SVGID_2_" points="1272,831.9 1271.9,832 1068.3,628.1 1271.9,424.3 1272,424.4 1272,831.9 		"/>
	</defs>
	<defs>
		<polygon id="SVGID_3_" points="1272,1256.3 1271.9,1256.3 1068.3,1052.5 1271.9,848.7 1272,848.7 1272,1256.3 		"/>
	</defs>
	<defs>
		<polygon id="SVGID_4_" points="1060.9,1044.1 1060.8,1044.1 1060.8,636.6 1060.9,636.5 1264.6,840.3 1060.9,1044.1 		"/>
	</defs>
	<defs>
		<polygon id="SVGID_5_" points="1060.9,619.8 1060.8,619.7 1060.8,212.2 1060.9,212.2 1264.6,416 1060.9,619.8 		"/>
	</defs>
	<defs>
		<polygon id="SVGID_6_" points="1060.8,1044.1 857.2,840.3 1060.8,636.6 1060.8,1044.1 		"/>
	</defs>
	<defs>
		<polygon id="SVGID_7_" points="1060.8,619.7 857.2,416 1060.8,212.2 1060.8,619.7 		"/>
	</defs>
	<defs>
		<polygon id="SVGID_8_" points="1053,627.6 1053.2,627.8 849.5,831.6 645.8,627.8 645.9,627.6 1053,627.6 		"/>
	</defs>
	<defs>
		<polygon id="SVGID_9_" points="645.9,627.9 645.8,627.8 849.5,424 1053.2,627.8 1053,627.9 645.9,627.9 		"/>
	</defs>
	<defs>
		<polygon id="SVGID_10_" points="637.8,1044.1 637.8,636.5 841.5,840.3 637.8,1044.1 		"/>
	</defs>
	<defs>
		<polygon id="SVGID_11_" points="637.8,1044.1 434.2,840.3 637.8,636.5 637.8,1044.1 		"/>
	</defs>
	<defs>
		<polygon id="SVGID_12_" points="629,627.6 629.1,627.8 425.4,831.6 221.8,627.8 221.9,627.6 629,627.6 		"/>
	</defs>
	<defs>
		<polygon id="SVGID_13_" points="221.9,627.9 221.8,627.8 425.4,424 629.1,627.8 629,627.9 221.9,627.9 		"/>
	</defs>
	<defs>
		<polygon id="SVGID_14_" points="212.1,1044.1 212.1,636.6 415.7,840.3 212.1,1044.1 		"/>
	</defs>
	<defs>
		<polygon id="SVGID_15_" points="212.1,619.7 212.1,212.2 415.7,416 212.1,619.7 		"/>
	</defs>
	<defs>
		<polygon id="SVGID_16_" points="212.1,1044.1 212,1044.1 8.4,840.3 212,636.5 212.1,636.6 212.1,1044.1 		"/>
	</defs>
	<defs>
		<polygon id="SVGID_17_" points="212.1,619.7 212,619.8 8.4,416 212,212.2 212.1,212.2 212.1,619.7 		"/>
	</defs>
	<defs>
		<polygon id="SVGID_18_" points="0,1256.3 0,1256.3 0,848.7 0,848.7 203.7,1052.5 0,1256.3 		"/>
	</defs>
	<defs>
		<polygon id="SVGID_19_" points="0,832 0,831.9 0,424.4 0,424.3 203.7,628.1 0,832 		"/>
	</defs>
	<defs>
		<polygon id="SVGID_20_" points="0,407.6 0,407.6 0,0 0,0 203.7,203.8 0,407.6 		"/>
	</defs>
	<use xlink:href="#SVGID_1_"  style="overflow:visible;fill-rule:evenodd;clip-rule:evenodd;fill:#FF86C0;"/>
	<use xlink:href="#SVGID_2_"  style="overflow:visible;fill-rule:evenodd;clip-rule:evenodd;fill:#D93389;"/>
	<use xlink:href="#SVGID_3_"  style="overflow:visible;fill-rule:evenodd;clip-rule:evenodd;fill:#92278F;"/>
	<use xlink:href="#SVGID_4_"  style="overflow:visible;fill-rule:evenodd;clip-rule:evenodd;fill:#B41D8E;"/>
	<use xlink:href="#SVGID_5_"  style="overflow:visible;fill-rule:evenodd;clip-rule:evenodd;fill:#EF59A1;"/>
	<use xlink:href="#SVGID_6_"  style="overflow:visible;fill-rule:evenodd;clip-rule:evenodd;fill:#92278F;"/>
	<use xlink:href="#SVGID_7_"  style="overflow:visible;fill-rule:evenodd;clip-rule:evenodd;fill:#371466;"/>
	<use xlink:href="#SVGID_8_"  style="overflow:visible;fill-rule:evenodd;clip-rule:evenodd;fill:#702C91;"/>
	<use xlink:href="#SVGID_9_"  style="overflow:visible;fill-rule:evenodd;clip-rule:evenodd;fill:#562988;"/>
	<use xlink:href="#SVGID_10_"  style="overflow:visible;fill-rule:evenodd;clip-rule:evenodd;fill:#371466;"/>
	<use xlink:href="#SVGID_11_"  style="overflow:visible;fill-rule:evenodd;clip-rule:evenodd;fill:#272262;"/>
	<use xlink:href="#SVGID_12_"  style="overflow:visible;fill-rule:evenodd;clip-rule:evenodd;fill:#1D3D88;"/>
	<use xlink:href="#SVGID_13_"  style="overflow:visible;fill-rule:evenodd;clip-rule:evenodd;fill:#252F77;"/>
	<use xlink:href="#SVGID_14_"  style="overflow:visible;fill-rule:evenodd;clip-rule:evenodd;fill:#084F9D;"/>
	<use xlink:href="#SVGID_15_"  style="overflow:visible;fill-rule:evenodd;clip-rule:evenodd;fill:#272262;"/>
	<use xlink:href="#SVGID_16_"  style="overflow:visible;fill-rule:evenodd;clip-rule:evenodd;fill:#1B87C7;"/>
	<use xlink:href="#SVGID_17_"  style="overflow:visible;fill-rule:evenodd;clip-rule:evenodd;fill:#0CB699;"/>
	<use xlink:href="#SVGID_18_"  style="overflow:visible;fill-rule:evenodd;clip-rule:evenodd;fill:#0058A2;"/>
	<use xlink:href="#SVGID_19_"  style="overflow:visible;fill-rule:evenodd;clip-rule:evenodd;fill:#3BC3F3;"/>
	<use xlink:href="#SVGID_20_"  style="overflow:visible;fill-rule:evenodd;clip-rule:evenodd;fill:#0FE9C4;"/>
	<clipPath id="SVGID_21_">
		<use xlink:href="#SVGID_1_"  style="overflow:visible;"/>
	</clipPath>
	<clipPath id="SVGID_22_" class="st0">
		<use xlink:href="#SVGID_2_"  style="overflow:visible;"/>
	</clipPath>
	<clipPath id="SVGID_23_" class="st1">
		<use xlink:href="#SVGID_3_"  style="overflow:visible;"/>
	</clipPath>
	<clipPath id="SVGID_24_" class="st2">
		<use xlink:href="#SVGID_4_"  style="overflow:visible;"/>
	</clipPath>
	<clipPath id="SVGID_25_" class="st3">
		<use xlink:href="#SVGID_5_"  style="overflow:visible;"/>
	</clipPath>
	<clipPath id="SVGID_26_" class="st4">
		<use xlink:href="#SVGID_6_"  style="overflow:visible;"/>
	</clipPath>
	<clipPath id="SVGID_27_" class="st5">
		<use xlink:href="#SVGID_7_"  style="overflow:visible;"/>
	</clipPath>
	<clipPath id="SVGID_28_" class="st6">
		<use xlink:href="#SVGID_8_"  style="overflow:visible;"/>
	</clipPath>
	<clipPath id="SVGID_29_" class="st7">
		<use xlink:href="#SVGID_9_"  style="overflow:visible;"/>
	</clipPath>
	<clipPath id="SVGID_30_" class="st8">
		<use xlink:href="#SVGID_10_"  style="overflow:visible;"/>
	</clipPath>
	<clipPath id="SVGID_31_" class="st9">
		<use xlink:href="#SVGID_11_"  style="overflow:visible;"/>
	</clipPath>
	<clipPath id="SVGID_32_" class="st10">
		<use xlink:href="#SVGID_12_"  style="overflow:visible;"/>
	</clipPath>
	<clipPath id="SVGID_33_" class="st11">
		<use xlink:href="#SVGID_13_"  style="overflow:visible;"/>
	</clipPath>
	<clipPath id="SVGID_34_" class="st12">
		<use xlink:href="#SVGID_14_"  style="overflow:visible;"/>
	</clipPath>
	<clipPath id="SVGID_35_" class="st13">
		<use xlink:href="#SVGID_15_"  style="overflow:visible;"/>
	</clipPath>
	<clipPath id="SVGID_36_" class="st14">
		<use xlink:href="#SVGID_16_"  style="overflow:visible;"/>
	</clipPath>
	<clipPath id="SVGID_37_" class="st15">
		<use xlink:href="#SVGID_17_"  style="overflow:visible;"/>
	</clipPath>
	<clipPath id="SVGID_38_" class="st16">
		<use xlink:href="#SVGID_18_"  style="overflow:visible;"/>
	</clipPath>
	<clipPath id="SVGID_39_" class="st17">
		<use xlink:href="#SVGID_19_"  style="overflow:visible;"/>
	</clipPath>
	<clipPath id="SVGID_40_" class="st18">
		<use xlink:href="#SVGID_20_"  style="overflow:visible;"/>
	</clipPath>
</g>
<g>
	<path d="M1707.8,447.7h94.8L1902.8,692h4.3l100.1-244.3h94.8v363.6h-74.6V574.6h-3l-94.1,234.9h-50.8l-94.1-235.8h-3v237.6h-74.6
		V447.7z"/>
	<path d="M2288.1,816.6c-28.1,0-52.2-5.7-72.4-17.1c-20.2-11.4-35.7-27.6-46.6-48.7c-10.9-21-16.3-45.9-16.3-74.7
		c0-28.1,5.4-52.7,16.3-73.9c10.9-21.2,26.2-37.7,46.1-49.5c19.8-11.8,43.1-17.8,69.9-17.8c18,0,34.8,2.9,50.3,8.6
		c15.6,5.7,29.2,14.4,40.8,25.8c11.7,11.5,20.7,25.9,27.3,43.2c6.5,17.3,9.8,37.6,9.8,60.8v20.8h-230.3v-46.9H2342
		c0-10.9-2.4-20.5-7.1-28.9c-4.7-8.4-11.3-15-19.6-19.8c-8.3-4.8-18-7.2-29-7.2c-11.5,0-21.6,2.6-30.5,7.9
		c-8.8,5.3-15.7,12.3-20.7,21.1c-5,8.8-7.5,18.6-7.6,29.4v44.6c0,13.5,2.5,25.2,7.5,35c5,9.8,12.2,17.4,21.4,22.7
		c9.2,5.3,20.2,8,32.8,8c8.4,0,16.1-1.2,23.1-3.6c7-2.4,13-5.9,17.9-10.7c5-4.7,8.8-10.5,11.4-17.4l70,4.6
		c-3.6,16.8-10.8,31.5-21.8,43.9c-11,12.5-25,22.2-42.3,29.1C2330.4,813.2,2310.5,816.6,2288.1,816.6z"/>
	<path d="M2563.1,815.7c-20.7,0-39.4-5.4-56.2-16.1c-16.8-10.7-30-26.5-39.8-47.4c-9.8-20.9-14.6-46.5-14.6-77
		c0-31.3,5-57.3,15.1-78c10.1-20.8,23.5-36.3,40.2-46.7c16.7-10.4,35.1-15.5,55.1-15.5c15.3,0,28,2.6,38.3,7.7
		c10.2,5.1,18.5,11.5,24.9,19.2c6.3,7.6,11.2,15.1,14.5,22.5h2.3V447.7h75.5v363.6h-74.6v-43.7h-3.2c-3.6,7.6-8.6,15.1-15,22.5
		c-6.5,7.4-14.8,13.5-25,18.4C2590.2,813.3,2577.8,815.7,2563.1,815.7z M2587.1,755.6c12.2,0,22.5-3.3,31-10
		c8.5-6.7,15-16.1,19.5-28.1c4.6-12.1,6.8-26.2,6.8-42.4c0-16.2-2.3-30.3-6.7-42.3c-4.5-12-11-21.2-19.5-27.7
		c-8.5-6.5-18.9-9.8-31.1-9.8c-12.4,0-22.9,3.4-31.4,10.1s-15,16.1-19.4,28.1c-4.4,12-6.6,25.8-6.6,41.5c0,15.9,2.2,29.9,6.7,42
		c4.4,12.1,10.9,21.6,19.4,28.4C2564.2,752.2,2574.6,755.6,2587.1,755.6z"/>
	<path d="M2818.4,503.4c-11.2,0-20.9-3.7-28.9-11.2c-8.1-7.5-12.1-16.5-12.1-27c0-10.5,4-19.6,12.1-27.1c8-7.5,17.6-11.3,28.8-11.3
		c11.4,0,21,3.7,29,11.2c8,7.5,12,16.5,12,27c0,10.5-4,19.6-12,27.1C2839.3,499.7,2829.7,503.4,2818.4,503.4z M2780.2,811.3V538.6
		h75.6v272.7H2780.2z"/>
	<path d="M2994,816.5c-17.4,0-32.9-3-46.5-9.1c-13.6-6.1-24.4-15.2-32.2-27.2c-7.9-12-11.8-27-11.8-45c0-15.2,2.8-27.9,8.3-38.2
		c5.6-10.3,13.1-18.6,22.7-24.9c9.6-6.3,20.5-11,32.8-14.2c12.3-3.2,25.1-5.4,38.6-6.7c15.9-1.7,28.6-3.2,38.4-4.7
		c9.7-1.5,16.7-3.7,21.1-6.7c4.4-3,6.6-7.3,6.6-13.1v-1.1c0-11.2-3.5-19.9-10.6-26.1c-7-6.2-17-9.2-29.9-9.2c-13.6,0-24.4,3-32.5,9
		c-8.1,6-13.4,13.5-16,22.5l-70-5.7c3.6-16.6,10.5-30.9,21-43.1c10.4-12.1,23.9-21.5,40.4-28.1c16.5-6.6,35.7-9.9,57.4-9.9
		c15.2,0,29.7,1.8,43.6,5.3c13.9,3.6,26.3,9.1,37.1,16.5s19.4,17,25.7,28.7c6.3,11.7,9.4,25.6,9.4,41.8v183.9h-71.7v-37.8h-2.1
		c-4.4,8.5-10.2,16-17.6,22.5c-7.3,6.5-16.2,11.5-26.5,15.1C3019.4,814.6,3007.5,816.5,2994,816.5z M3015.7,764.3
		c11.1,0,21-2.2,29.5-6.7c8.5-4.4,15.2-10.4,20.1-18c4.9-7.6,7.3-16.2,7.3-25.7v-28.9c-2.4,1.5-5.6,2.9-9.7,4.2s-8.7,2.4-13.8,3.4
		c-5.1,1-10.2,1.9-15.3,2.7c-5.1,0.8-9.7,1.5-13.8,2c-8.9,1.3-16.6,3.4-23.3,6.2c-6.6,2.8-11.8,6.7-15.4,11.5
		c-3.7,4.8-5.5,10.7-5.5,17.8c0,10.3,3.8,18.1,11.3,23.5C2994.5,761.6,3004.1,764.3,3015.7,764.3z"/>
	<path d="M3627.9,447.7v363.6h-66.4l-158.2-228.9h-2.7v228.9h-76.9V447.7h67.5l157,228.7h3.2V447.7H3627.9z"/>
	<path d="M3814.1,816.6c-28.1,0-52.2-5.7-72.4-17.1c-20.2-11.4-35.7-27.6-46.6-48.7c-10.9-21-16.3-45.9-16.3-74.7
		c0-28.1,5.4-52.7,16.3-73.9c10.9-21.2,26.2-37.7,46.1-49.5c19.8-11.8,43.1-17.8,69.9-17.8c18,0,34.8,2.9,50.3,8.6
		c15.6,5.7,29.2,14.4,40.8,25.8c11.7,11.5,20.7,25.9,27.3,43.2c6.5,17.3,9.8,37.6,9.8,60.8v20.8H3709v-46.9h159.1
		c0-10.9-2.4-20.5-7.1-28.9c-4.7-8.4-11.3-15-19.6-19.8c-8.3-4.8-18-7.2-29-7.2c-11.5,0-21.6,2.6-30.5,7.9
		c-8.8,5.3-15.7,12.3-20.7,21.1c-5,8.8-7.5,18.6-7.6,29.4v44.6c0,13.5,2.5,25.2,7.5,35c5,9.8,12.2,17.4,21.4,22.7
		c9.2,5.3,20.2,8,32.8,8c8.4,0,16.1-1.2,23.1-3.6c7-2.4,13-5.9,17.9-10.7c5-4.7,8.8-10.5,11.4-17.4l70,4.6
		c-3.6,16.8-10.8,31.5-21.8,43.9c-11,12.5-25,22.2-42.3,29.1C3856.5,813.2,3836.6,816.6,3814.1,816.6z"/>
	<path d="M4133.7,538.6v56.8h-164.2v-56.8H4133.7z M4006.8,473.2h75.6v254.3c0,7,1.1,12.4,3.2,16.2c2.1,3.8,5.1,6.5,9,8.1
		c3.8,1.5,8.3,2.3,13.4,2.3c3.6,0,7.1-0.3,10.7-1c3.6-0.6,6.3-1.2,8.2-1.5l11.9,56.3c-3.8,1.2-9.1,2.6-16,4.2
		c-6.9,1.6-15.2,2.6-25,2.9c-18.2,0.7-34.2-1.7-47.9-7.3s-24.3-14.2-31.9-25.9c-7.6-11.7-11.3-26.5-11.2-44.4V473.2z"/>
	<path d="M4236.7,811.3l-74.2-272.7h76.5l42.3,183.2h2.5l44-183.2h75.1l44.7,182.2h2.3l41.5-182.2h76.3l-74,272.7h-80.1l-46.9-171.5
		h-3.4l-46.9,171.5H4236.7z"/>
	<path d="M4724.5,816.6c-27.6,0-51.4-5.9-71.5-17.7c-20.1-11.8-35.5-28.2-46.4-49.4c-10.9-21.1-16.3-45.7-16.3-73.6
		c0-28.2,5.4-52.8,16.3-74c10.9-21.1,26.4-37.6,46.4-49.4c20.1-11.8,43.9-17.7,71.5-17.7c27.6,0,51.4,5.9,71.5,17.7
		c20.1,11.8,35.5,28.2,46.4,49.4c10.9,21.1,16.3,45.8,16.3,74c0,27.9-5.4,52.5-16.3,73.6c-10.9,21.1-26.4,37.6-46.4,49.4
		C4775.9,810.7,4752,816.6,4724.5,816.6z M4724.8,758c12.5,0,23-3.6,31.4-10.7c8.4-7.2,14.8-17,19.1-29.4
		c4.3-12.4,6.5-26.6,6.5-42.4c0-15.9-2.2-30-6.5-42.4c-4.3-12.4-10.7-22.3-19.1-29.5c-8.4-7.2-18.9-10.8-31.4-10.8
		c-12.7,0-23.3,3.6-31.9,10.8c-8.6,7.2-15,17-19.4,29.5c-4.3,12.4-6.5,26.6-6.5,42.4c0,15.9,2.2,30,6.5,42.4
		c4.3,12.4,10.8,22.2,19.4,29.4C4701.5,754.5,4712.1,758,4724.8,758z"/>
	<path d="M4908,811.3V538.6h73.3v47.6h2.8c5-16.9,13.3-29.7,25-38.4s25.2-13.1,40.5-13.1c3.8,0,7.9,0.2,12.3,0.7
		c4.4,0.5,8.2,1.1,11.5,2v67.1c-3.6-1.1-8.5-2-14.7-2.8c-6.3-0.8-12-1.2-17.2-1.2c-11.1,0-21,2.4-29.7,7.2s-15.6,11.5-20.6,20
		c-5,8.5-7.5,18.4-7.5,29.5v154.3H4908z"/>
	<path d="M5112.4,811.3V447.7h75.6v363.6H5112.4z M5180.9,732.8l0.2-90.7h11l87.4-103.5h86.8l-117.4,137.1H5231L5180.9,732.8z
		 M5282.9,811.3l-80.3-118.8l50.4-53.4l118.4,172.2H5282.9z"/>
</g>
</svg>
