<?xml version="1.0" encoding="utf-8"?>
<!-- Generator: Adobe Illustrator 23.0.0, SVG Export Plug-In . SVG Version: 6.00 Build 0)  -->
<svg version="1.1" id="Layer_1" xmlns="http://www.w3.org/2000/svg" xmlns:xlink="http://www.w3.org/1999/xlink" x="0px" y="0px"
	 viewBox="0 0 1999.9 1999.9" style="enable-background:new 0 0 1999.9 1999.9;" xml:space="preserve">
<style type="text/css">
	.st0{fill-rule:evenodd;clip-rule:evenodd;fill:url(#SVGID_1_);}
	.st1{fill-rule:evenodd;clip-rule:evenodd;fill:#FFFFFF;}
</style>
<linearGradient id="SVGID_1_" gradientUnits="userSpaceOnUse" x1="1643.7076" y1="796.1317" x2="358.0924" y2="2328.2683" gradientTransform="matrix(1 0 0 -1 0 2560)">
	<stop  offset="0.23" style="stop-color:#D93389"/>
	<stop  offset="0.78" style="stop-color:#3BC3F3"/>
	<stop  offset="1" style="stop-color:#22DFE0"/>
</linearGradient>
<path class="st0" d="M1000.9-2.2c552.3,0,1000,447.7,1000,1000s-447.7,1000-1000,1000S0.9,1550.1,0.9,997.8S448.6-2.2,1000.9-2.2
	L1000.9-2.2z"/>
<g>
	<g>
		<path class="st1" d="M797.8,1212.4l203.7,203.8l203.7-203.8l-203.7-203.8L797.8,1212.4z M373.1,1212.1l203.7,203.8l203.7-203.8
			l-203.7-203.8L373.1,1212.1z M576.8,991.6l203.7-203.8L576.8,584L373.1,787.8L576.8,991.6z M789.4,795.8L585.8,999.6l203.7,203.8
			l203.7-203.8L789.4,795.8z M1434.2,1424.3l203.7,203.8l0,0v-407.5l0,0L1434.2,1424.3z M1434.2,1000l203.7,203.8l0,0V796.2l0,0
			L1434.2,1000z M1637.9,371.8l-203.7,203.8l203.7,203.8l0,0V371.8L1637.9,371.8z M1628.8,787.8L1425.1,584l-203.7,203.8
			l203.7,203.8L1628.8,787.8z M1425.1,1008.3l-203.7,203.8l203.7,203.8l203.7-203.8L1425.1,1008.3z M567.7,1000L364,796.1l0,0v407.5
			l0,0L567.7,1000z M1213.5,795.8l-203.7,203.8l203.7,203.8l203.7-203.8L1213.5,795.8z M567.7,575.6L364,371.8l0,0v407.5l0,0
			L567.7,575.6z M364,1220.5V1628l0,0l203.7-203.8L364,1220.5L364,1220.5z"/>
	</g>
</g>
</svg>
