<?xml version="1.0" encoding="UTF-8" standalone="no"?>
<!-- Created with Inkscape (http://www.inkscape.org/) -->

<svg
   width="156.79648mm"
   height="250.92914mm"
   viewBox="0 0 156.79648 250.92913"
   version="1.1"
   id="svg1"
   xmlns:inkscape="http://www.inkscape.org/namespaces/inkscape"
   xmlns:sodipodi="http://sodipodi.sourceforge.net/DTD/sodipodi-0.dtd"
   xmlns="http://www.w3.org/2000/svg"
   xmlns:svg="http://www.w3.org/2000/svg">
  <g
     inkscape:label="Layer 1"
     inkscape:groupmode="layer"
     id="layer1"
     transform="translate(-26.567761,-37.645489)">
    <path
       id="rect4-6-4-1-5-4-2"
       style="fill:#ffffff;fill-opacity:1;stroke-width:0;stroke-linecap:round;stroke-linejoin:round"
       inkscape:transform-center-x="54.492953"
       inkscape:transform-center-y="1.0524451e-05"
       d="m 26.567761,163.63488 5.872745,9.3201 72.246474,-116.590991 66.98069,106.299541 -51.94193,83.82361 -8.72968,-13.85422 37.46121,-60.45459 5.82382,-9.3984 -20.47517,-32.49441 -5.82382,9.39839 -37.461214,60.4546 -8.729682,-13.8542 37.461206,-60.4546 5.82383,-9.3984 -20.31648,-32.242531 -5.823822,9.398398 -57.76575,93.222013 5.872745,9.3201 58.251007,92.44534 5.82383,-9.39838 -58.251016,-92.44536 51.941926,-83.82359 8.57099,13.60231 -37.461211,60.45459 -5.823649,9.39842 20.475172,32.49441 5.823652,-9.39842 37.461206,-60.45459 8.72968,13.8542 -37.46103,60.4546 -5.823823,9.3984 20.475173,32.49442 5.82365,-9.39841 57.76575,-93.22199 -5.87275,-9.32011 -66.98069,-106.299556 -5.87274,-9.320085 z" />
  </g>
</svg>
