<?xml version="1.0" encoding="utf-8"?>
<!-- Generator: Adobe Illustrator 23.0.0, SVG Export Plug-In . SVG Version: 6.00 Build 0)  -->
<svg version="1.1" xmlns="http://www.w3.org/2000/svg" xmlns:xlink="http://www.w3.org/1999/xlink" x="0px" y="0px"
	 viewBox="0 0 446 439" enable-background="new 0 0 446 439" xml:space="preserve">
<g id="Layer_2" display="none">
</g>
<g id="Layer_3">
	<g>
		<path fill="#FF86C0" d="M445.7,141.5c-23.6-23.6-47.1-47.1-70.7-70.7c23.6-23.6,47.1-47.1,70.7-70.7
			C445.7,47.2,445.7,94.3,445.7,141.5z"/>
	</g>
	<g>
		<linearGradient id="SVGID_1_" gradientUnits="userSpaceOnUse" x1="152.2893" y1="293.4924" x2="293.7107" y2="293.4924">
			<stop  offset="0" style="stop-color:#252F79"/>
			<stop  offset="0.5" style="stop-color:#252F79"/>
			<stop  offset="0.5" style="stop-color:#562988"/>
			<stop  offset="1" style="stop-color:#562988"/>
		</linearGradient>
		<polygon fill="url(#SVGID_1_)" points="293.7,293.5 223,222.8 152.3,293.5 223,364.2 		"/>
	</g>
	<g>
		<linearGradient id="SVGID_2_" gradientUnits="userSpaceOnUse" x1="300.7817" y1="293.4924" x2="442.2031" y2="293.4924">
			<stop  offset="0" style="stop-color:#92278F"/>
			<stop  offset="0.5" style="stop-color:#92278F"/>
			<stop  offset="0.5" style="stop-color:#B41D8E"/>
			<stop  offset="1" style="stop-color:#B41D8E"/>
		</linearGradient>
		<polygon fill="url(#SVGID_2_)" points="442.2,293.5 371.5,222.8 300.8,293.5 371.5,364.2 		"/>
	</g>
	<g>
		<linearGradient id="SVGID_3_" gradientUnits="userSpaceOnUse" x1="297.2462" y1="289.9569" x2="297.2462" y2="148.5355">
			<stop  offset="0" style="stop-color:#702C91"/>
			<stop  offset="0.5" style="stop-color:#702C91"/>
			<stop  offset="0.5" style="stop-color:#562988"/>
			<stop  offset="1" style="stop-color:#562988"/>
		</linearGradient>
		<polygon fill="url(#SVGID_3_)" points="368,219.2 297.2,148.5 226.5,219.2 297.2,290 		"/>
	</g>
	<g>
		<linearGradient id="SVGID_4_" gradientUnits="userSpaceOnUse" x1="148.7538" y1="289.9569" x2="148.7538" y2="148.5355">
			<stop  offset="0" style="stop-color:#1D3D88"/>
			<stop  offset="0.5" style="stop-color:#1D3D88"/>
			<stop  offset="0.5" style="stop-color:#252F77"/>
			<stop  offset="1" style="stop-color:#252F77"/>
		</linearGradient>
		<polygon fill="url(#SVGID_4_)" points="219.5,219.2 148.8,148.5 78,219.2 148.8,290 		"/>
	</g>
	<g>
		<path fill="#D93389" d="M445.7,148.5c-23.6,23.6-47.1,47.1-70.7,70.7c23.6,23.6,47.1,47.1,70.7,70.7
			C445.7,242.8,445.7,195.7,445.7,148.5z"/>
	</g>
	<g>
		<linearGradient id="SVGID_5_" gradientUnits="userSpaceOnUse" x1="300.7817" y1="145" x2="442.2031" y2="145">
			<stop  offset="0" style="stop-color:#982F98"/>
			<stop  offset="0.5" style="stop-color:#982F98"/>
			<stop  offset="0.5" style="stop-color:#EF59A1"/>
			<stop  offset="1" style="stop-color:#EF59A1"/>
		</linearGradient>
		<polygon fill="url(#SVGID_5_)" points="442.2,145 371.5,74.3 300.8,145 371.5,215.7 		"/>
	</g>
	<g>
		<linearGradient id="SVGID_6_" gradientUnits="userSpaceOnUse" x1="3.7969" y1="145" x2="145.2182" y2="145">
			<stop  offset="0" style="stop-color:#0CB699"/>
			<stop  offset="0.5" style="stop-color:#0CB699"/>
			<stop  offset="0.5" style="stop-color:#1D5F88"/>
			<stop  offset="1" style="stop-color:#1D5F88"/>
		</linearGradient>
		<polygon fill="url(#SVGID_6_)" points="145.2,145 74.5,74.3 3.8,145 74.5,215.7 		"/>
	</g>
	<g>
		<linearGradient id="SVGID_7_" gradientUnits="userSpaceOnUse" x1="3.7969" y1="293.4924" x2="145.2182" y2="293.4924">
			<stop  offset="0" style="stop-color:#1B87C7"/>
			<stop  offset="0.5" style="stop-color:#1B87C7"/>
			<stop  offset="0.5" style="stop-color:#084F9D"/>
			<stop  offset="1" style="stop-color:#084F9D"/>
		</linearGradient>
		<polygon fill="url(#SVGID_7_)" points="145.2,293.5 74.5,222.8 3.8,293.5 74.5,364.2 		"/>
	</g>
	<g>
		<path fill="#0FE9C4" d="M0.3,141.5C23.8,117.9,47.4,94.3,71,70.8C47.4,47.2,23.8,23.6,0.3,0C0.3,47.2,0.3,94.3,0.3,141.5z"/>
	</g>
	<g>
		<path fill="#3BC3F3" d="M0.3,290c23.6-23.6,47.1-47.1,70.7-70.7c-23.6-23.6-47.1-47.1-70.7-70.7C0.3,195.7,0.3,242.8,0.3,290z"/>
	</g>
	<g>
		<path fill="#92278F" d="M445.7,297c-23.6,23.6-47.1,47.1-70.7,70.7c23.6,23.6,47.1,47.1,70.7,70.7
			C445.7,391.3,445.7,344.2,445.7,297z"/>
	</g>
	<g>
		<path fill="#0058A2" d="M0.3,438.4c23.6-23.6,47.1-47.1,70.7-70.7C47.4,344.2,23.8,320.6,0.3,297C0.3,344.2,0.3,391.3,0.3,438.4z"
			/>
	</g>
</g>
</svg>
