<svg xmlns="http://www.w3.org/2000/svg" width="24" height="24" viewBox="20 17 39 46"><g filter="url(#i100)"><path  d="m21.197 44.342 14.647-.01-8.395 16.891c-.595 1.198.88 2.348 1.884 1.47l27.295-23.865c.749-.655.29-1.894-.703-1.896l-15.073-.017L49.6 19.694c.576-1.134-.824-2.236-1.778-1.401l-27.41 23.94c-.834.729-.32 2.11.785 2.108v.002Z"></path></g><path d="m22.23 43.342 15.043-.01-8.622 16.891c-.611 1.198.904 2.348 1.934 1.47l28.033-23.865c.769-.655.298-1.894-.722-1.896l-15.48-.017L51.4 18.694c.59-1.134-.847-2.236-1.827-1.401l-28.15 23.94c-.858.729-.33 2.11.806 2.108v.002Z"></path><defs></defs></svg>